{"title":"War Room (2015) CAM XVID AC3 Hive - CM8","uid":12497780,"size":1476985625,"categoryP":"video","categoryS":"movies","magnet":"?xt=urn:btih:036f2f21b4af37807d534d74652bb7dfd7a2e0f0&amp;dn=War+Room+%282015%29+CAM+XVID+AC3+Hive+-+CM8&amp;tr=udp%3A%2F%2Ftracker.leechers-paradise.org%3A6969&amp;tr=udp%3A%2F%2Fzer0day.ch%3A1337&amp;tr=udp%3A%2F%2Fopen.demonii.com%3A1337&amp;tr=udp%3A%2F%2Ftracker.coppersurfer.tk%3A6969&amp;tr=udp%3A%2F%2Fexodus.desync.com%3A6969","seeders":0,"leechers":1,"uploader":"tykoon123","files":5,"time":1443309846,"description":"http://www.imgpuppy.com/image/HBEQ\r\n\r\nInfo: \r\nFormat                                   : AVI \r\nFormat/Info                              : Audio Video Interleave \r\nFile size                                : 1.36 GiB \r\nDuration                                 : 1h 48mn \r\nOverall bit rate                         : 1 793 Kbps \r\nWriting application                      : Nandub v1.0rc2 \r\nWriting library                          : Nandub build 1853/release \r\n\r\nVideo \r\nID                                       : 0 \r\nFormat                                   : MPEG-4 Visual \r\nFormat profile                           : Advanced    \r\nFormat settings, BVOP                    : 2 \r\nFormat settings, QPel                    : Yes \r\nFormat settings, GMC                     : No warppoints \r\nFormat settings, Matrix                  : Default (H.263) \r\nMuxing mode                              : Packed bitstream \r\nCodec ID                                 : XVID \r\nCodec ID/Hint                            : XviD \r\nDuration                                 : 1h 48mn \r\nBit rate                                 : 1 525 Kbps \r\nWidth                                    : 720 pixels \r\nHeight                                   : 240 pixels \r\nDisplay aspect ratio                     : 3.000 \r\nFrame rate                               : 29.970 fps \r\nColor space                              : YUV \r\nChroma subsampling                       : 4:2:0 \r\nBit depth                                : 8 bits \r\nScan type                                : Progressive \r\nCompression mode                         : Lossy \r\nBits/(Pixel*Frame)                       : 0.295 \r\nStream size                              : 1.16 GiB (85%) \r\nWriting library                          : XviD 1.2.1 (UTC 2008-12-04) \r\n\r\nAudio \r\nID                                       : 1 \r\nFormat                                   : AC-3 \r\nFormat/Info                              : Audio Coding 3 \r\nMode extension                           : CM (complete main) \r\nFormat settings, Endianness              : Big \r\nCodec ID                                 : 2000 \r\nDuration                                 : 1h 48mn \r\nBit rate mode                            : Constant \r\nBit rate                                 : 256 Kbps \r\nChannel(s)                               : 2 channels \r\nChannel positions                        : Front: L R \r\nSampling rate                            : 48.0 KHz \r\nBit depth                                : 16 bits \r\nCompression mode                         : Lossy \r\nStream size                              : 199 MiB (14%) \r\nAlignment                                : Split accross interleaves \r\nInterleave, duration                     : 33 ms (1.00 video frame) \r\nInterleave, preload duration             : 500 ms \r\n\r\n\r\nScreens: \nhttp://www.imgpuppy.com/image/HKmT \nhttp://www.imgpuppy.com/image/HTMX \nhttp://www.imgpuppy.com/image/Hm8W \nhttp://www.imgpuppy.com/image/Hnxx \nhttp://www.imgpuppy.com/image/Hgbt","torrent":{"xt":"urn:btih:036f2f21b4af37807d534d74652bb7dfd7a2e0f0","amp;dn":"War+Room+%282015%29+CAM+XVID+AC3+Hive+-+CM8","amp;tr":["udp%3A%2F%2Ftracker.leechers-paradise.org%3A6969","udp%3A%2F%2Fzer0day.ch%3A1337","udp%3A%2F%2Fopen.demonii.com%3A1337","udp%3A%2F%2Ftracker.coppersurfer.tk%3A6969","udp%3A%2F%2Fexodus.desync.com%3A6969"],"infoHash":"036f2f21b4af37807d534d74652bb7dfd7a2e0f0","infoHashBuffer":{"type":"Buffer","data":[3,111,47,33,180,175,55,128,125,83,77,116,101,43,183,223,215,162,224,240]},"announce":[],"urlList":[]}}